<svg width="339" height="339" viewBox="0 0 339 339" fill="none" xmlns="http://www.w3.org/2000/svg">
<g clip-path="url(#clip0_6_2)">
<path d="M91.9209 328.144C170.268 316.851 185.777 278.036 183.352 220.309C182.546 202.785 181.773 185.268 180.956 167.731V117.703C192.245 97.053 247.592 115.323 257.45 116.671C285.125 120.452 308.24 114.513 337.931 77.098L338.375 71.007L336.896 68.106L331.013 66.489C288.867 76.976 259.877 47.065 229.188 23.373C194.898 -3.11003 172.821 12.403 164.111 21.5C160.155 23.401 157.406 27.407 157.406 32.083V50.563C157.272 54.749 157.292 58.931 157.406 63.125V202.078C128.29 190.861 100.498 188.192 70.9459 197.149C39.2379 206.754 8.35394 230.828 1.82194 262.166C-11.4901 326.164 51.1479 334.007 91.9209 328.144Z" fill="black"/>
</g>
<defs>
<clipPath id="clip0_6_2">
<rect width="338.376" height="338.376" fill="white"/>
</clipPath>
</defs>
</svg>
