<svg width="512" height="512" viewBox="0 0 512 512" fill="none" xmlns="http://www.w3.org/2000/svg">
<g clip-path="url(#clip0_13_104)">
<path d="M256 10.8477C391.398 10.8477 501.153 120.602 501.153 256C501.153 391.398 391.398 501.153 256 501.153C120.602 501.153 10.8477 391.398 10.8477 256C10.8477 120.602 120.602 10.8477 256 10.8477ZM449.085 256C449.085 149.359 362.642 62.9155 256 62.9155C149.359 62.9155 62.9155 149.359 62.9155 256C62.9155 362.642 149.359 449.085 256 449.085C362.642 449.085 449.085 362.642 449.085 256Z" fill="#9D7355"/>
<path d="M63.4403 256.322C63.4403 149.681 149.884 63.2372 256.525 63.2372C363.166 63.2372 449.61 149.681 449.61 256.322C449.61 362.963 363.166 449.407 256.525 449.407C149.884 449.407 63.4403 362.963 63.4403 256.322Z" fill="#8ECAC1"/>
<path d="M256 512C187.618 512 123.33 485.372 74.9798 437.021C26.6283 388.67 0 324.382 0 256C0 187.618 26.6283 123.33 74.9798 74.9787C123.33 26.6283 187.618 0 256 0C324.382 0 388.67 26.6283 437.021 74.9787C485.372 123.33 512 187.618 512 256C512 324.382 485.372 388.67 437.021 437.021C388.67 485.372 324.382 512 256 512ZM256 21.6949C193.413 21.6949 134.574 46.067 90.3203 90.3203C46.0659 134.574 21.6949 193.413 21.6949 256C21.6949 318.587 46.0659 377.426 90.3203 421.68C134.574 465.933 193.413 490.305 256 490.305C318.587 490.305 377.426 465.933 421.68 421.68C465.933 377.426 490.305 318.587 490.305 256C490.305 193.413 465.933 134.574 421.68 90.3203C377.426 46.067 318.587 21.6949 256 21.6949Z" fill="#5E3A2A"/>
<path d="M256 103.789C250.009 103.789 245.152 98.9311 245.152 92.9411V62.9153C245.152 56.9254 250.009 52.0679 256 52.0679C261.99 52.0679 266.847 56.9254 266.847 62.9153V92.9411C266.847 98.9311 261.99 103.789 256 103.789Z" fill="#5E3A2A"/>
<path d="M256 459.932C250.009 459.932 245.152 455.075 245.152 449.085V419.059C245.152 413.069 250.009 408.211 256 408.211C261.99 408.211 266.847 413.069 266.847 419.059V449.085C266.847 455.075 261.99 459.932 256 459.932Z" fill="#5E3A2A"/>
<path d="M449.085 266.847H419.059C413.069 266.847 408.211 261.991 408.211 256C408.211 250.009 413.069 245.152 419.059 245.152H449.085C455.075 245.152 459.932 250.009 459.932 256C459.932 261.991 455.075 266.847 449.085 266.847Z" fill="#5E3A2A"/>
<path d="M92.9411 266.847H62.9153C56.9243 266.847 52.0679 261.991 52.0679 256C52.0679 250.009 56.9243 245.152 62.9153 245.152H92.9411C98.9321 245.152 103.789 250.009 103.789 256C103.789 261.991 98.9321 266.847 92.9411 266.847Z" fill="#5E3A2A"/>
<path d="M337.519 125.637C335.679 125.637 333.814 125.168 332.106 124.182C326.917 121.186 325.14 114.552 328.136 109.364L343.149 83.3617C346.145 78.1733 352.777 76.3954 357.966 79.3915C363.154 82.3876 364.932 89.0208 361.936 94.2091L346.923 120.212C344.914 123.691 341.268 125.637 337.519 125.637Z" fill="#5E3A2A"/>
<path d="M159.448 434.063C157.607 434.063 155.743 433.593 154.034 432.607C148.846 429.611 147.068 422.978 150.064 417.79L165.077 391.787C168.073 386.6 174.708 384.822 179.894 387.817C185.083 390.813 186.861 397.446 183.865 402.635L168.852 428.637C166.843 432.117 163.197 434.063 159.448 434.063Z" fill="#5E3A2A"/>
<path d="M423.204 363.392C421.364 363.392 419.499 362.922 417.791 361.936L391.788 346.923C386.6 343.927 384.822 337.294 387.818 332.106C390.814 326.917 397.445 325.14 402.636 328.136L428.638 343.149C433.827 346.145 435.605 352.778 432.609 357.966C430.598 361.446 426.953 363.392 423.204 363.392Z" fill="#5E3A2A"/>
<path d="M114.777 185.32C112.936 185.32 111.071 184.85 109.363 183.864L83.3617 168.851C78.1733 165.855 76.3965 159.221 79.3915 154.034C82.3876 148.847 89.0219 147.07 94.2102 150.064L120.212 165.077C125.4 168.073 127.177 174.707 124.182 179.894C122.173 183.374 118.527 185.32 114.777 185.32Z" fill="#5E3A2A"/>
<path d="M397.223 185.32C393.473 185.32 389.828 183.374 387.818 179.894C384.822 174.706 386.6 168.073 391.788 165.077L417.791 150.064C422.978 147.069 429.612 148.847 432.609 154.034C435.605 159.222 433.827 165.855 428.638 168.851L402.636 183.864C400.927 184.85 399.063 185.32 397.223 185.32Z" fill="#5E3A2A"/>
<path d="M88.7962 363.392C85.0474 363.392 81.4015 361.446 79.3915 357.966C76.3954 352.779 78.1733 346.145 83.3617 343.149L109.363 328.136C114.55 325.138 121.186 326.917 124.182 332.106C127.178 337.293 125.4 343.927 120.212 346.923L94.2102 361.936C92.5028 362.922 90.6371 363.392 88.7962 363.392Z" fill="#5E3A2A"/>
<path d="M352.553 434.063C348.803 434.063 345.159 432.117 343.149 428.637L328.136 402.636C325.14 397.448 326.917 390.815 332.106 387.819C337.294 384.824 343.928 386.601 346.923 391.789L361.936 417.791C364.932 422.979 363.154 429.613 357.966 432.609C356.259 433.595 354.393 434.063 352.553 434.063Z" fill="#5E3A2A"/>
<path d="M174.48 125.637C170.732 125.637 167.086 123.691 165.077 120.211L150.064 94.2101C147.068 89.0218 148.846 82.3885 154.034 79.3925C159.222 76.3964 165.857 78.1743 168.852 83.3626L183.865 109.365C186.861 114.553 185.083 121.188 179.894 124.183C178.186 125.169 176.32 125.637 174.48 125.637Z" fill="#5E3A2A"/>
<path d="M256 459.932C143.551 459.932 52.0679 368.448 52.0679 256C52.0679 143.552 143.551 52.0679 256 52.0679C368.448 52.0679 459.932 143.552 459.932 256C459.932 368.448 368.448 459.932 256 459.932ZM256 73.7628C155.514 73.7628 73.7628 155.514 73.7628 256C73.7628 356.487 155.514 438.237 256 438.237C356.487 438.237 438.237 356.487 438.237 256C438.237 155.514 356.487 73.7628 256 73.7628Z" fill="#5E3A2A"/>
</g>
<defs>
<clipPath id="clip0_13_104">
<rect width="512" height="512" fill="white"/>
</clipPath>
</defs>
</svg>
