<svg width="504" height="351" viewBox="0 0 504 351" fill="none" xmlns="http://www.w3.org/2000/svg">
<path d="M482.133 73.133L448 312.067C448 330.84 432.64 346.2 413.867 346.2H89.6C70.827 346.2 55.467 330.84 55.467 312.067L21.333 73.133H482.133Z" fill="#E6A264"/>
<path d="M456.533 4.867H455.68H47.787H4.267V73.133H21.333H482.133H499.2V4.867H456.533Z" fill="#F1BF91"/>
<path d="M413.867 350.467H89.6C68.267 350.467 51.2 333.4 51.2 312.067L22.187 108.12C22.187 105.56 23.894 103.853 25.6 103C28.16 103 29.867 104.707 30.72 106.413L59.733 311.213C59.733 328.28 73.386 341.933 89.6 341.933H413.867C430.08 341.933 443.734 328.28 443.734 312.066L477.014 77.399H4.267C1.707 77.399 0 75.692 0 73.132V4.86501C0 2.30501 1.707 0.598011 4.267 0.598011H17.92C20.48 0.598011 22.187 2.30501 22.187 4.86501C22.187 7.42501 20.48 9.13201 17.92 9.13201H8.533V68.865H482.133C482.986 68.865 484.693 69.718 485.546 70.572C486.399 71.425 486.399 73.132 486.399 73.985L452.267 312.92C452.267 333.4 435.2 350.467 413.867 350.467ZM371.2 316.333C368.64 316.333 366.933 314.626 366.933 312.066L369.493 282.199H298.666V312.066C298.666 314.626 296.959 316.333 294.399 316.333C291.839 316.333 290.132 314.626 290.132 312.066V282.2H213.332V312.067C213.332 314.627 211.625 316.334 209.065 316.334C206.505 316.334 204.798 314.627 204.798 312.067V282.2H133.971L136.531 312.067C136.531 314.627 134.824 316.334 132.264 316.334C129.704 316.334 127.997 314.627 127.997 312.067L125.437 282.2H86.187C83.627 282.2 81.92 280.493 81.92 277.933C81.92 275.373 83.627 273.666 86.187 273.666H124.587L119.467 213.933H76.8C74.24 213.933 72.533 212.226 72.533 209.666C72.533 207.106 74.24 205.4 76.8 205.4H118.613L113.493 145.667H68.267C65.707 145.667 64 143.96 64 141.4C64 138.84 65.707 137.133 68.267 137.133H112.64L110.08 107.266C110.08 104.706 111.787 102.999 114.347 102.999C116.907 102.999 118.614 104.706 118.614 107.266L121.174 137.133H203.947V107.266C203.947 104.706 205.654 102.999 208.214 102.999C210.774 102.999 212.481 104.706 212.481 107.266V137.133H289.281V107.266C289.281 104.706 290.988 102.999 293.548 102.999C296.108 102.999 297.815 104.706 297.815 107.266V137.133H380.588L383.148 107.266C383.148 104.706 385.708 102.999 387.415 102.999C389.975 102.999 391.682 104.706 391.682 107.266L389.122 137.133H434.349C436.909 137.133 438.616 138.84 438.616 141.4C438.616 143.96 436.909 145.667 434.349 145.667H388.269L383.149 205.4H424.962C427.522 205.4 429.229 207.107 429.229 209.667C429.229 212.227 427.522 213.934 424.962 213.934H382.295L377.175 273.667H416.428C418.988 273.667 420.695 275.374 420.695 277.934C420.695 280.494 418.988 282.201 416.428 282.201H376.32L373.76 312.068C375.467 314.627 373.76 316.333 371.2 316.333ZM298.667 273.667H370.347L375.467 213.934H298.667V273.667ZM213.333 273.667H290.133V213.934H213.333V273.667ZM133.12 273.667H204.8V213.934H128L133.12 273.667ZM298.667 205.4H375.467L380.587 145.667H298.667V205.4ZM213.333 205.4H290.133V145.667H213.333V205.4ZM128 205.4H204.8V145.667H122.88L128 205.4ZM460.8 9.133C461.654 11.693 459.093 9.133 460.8 9.133L443.734 0.60001C460.8 9.133 441.174 0.60001 443.734 0.60001C459.093 0.60001 459.093 0.60001 459.093 0.60001H499.2C501.76 0.60001 503.467 2.30701 503.467 4.86701V39C503.467 41.56 501.76 43.267 499.2 43.267C496.64 43.267 494.933 41.56 494.933 39V9.133H460.8C461.653 11.693 445.441 -0.25299 443.734 0.60001L460.8 9.133ZM52.053 9.13401L54.613 0.60001H423.253C425.813 0.60001 427.52 2.30701 427.52 4.86701C427.52 7.42701 425.813 9.13401 423.253 9.13401H52.053Z" fill="#51565F"/>
</svg>
